<?xml version="1.0" encoding="UTF-8"?><svg id="a" xmlns="http://www.w3.org/2000/svg" width="2118.25mm" height="239.81mm" viewBox="0 0 6004.49 679.78"><defs><style>.e{fill:currentColor;}</style></defs><path class="e" d="M906.38,0H226.6S0,679.78,0,679.78h679.78S906.38,0,906.38,0ZM784.32,56.36l-45.92,34.44c-.08.06-.16.12-.25.19-79.8,59.8-137.38,79.15-152.79,79.15-16.87,0-29.22-3.15-33.03-8.44-1.61-2.23-6.15-11.68,3.11-39.45l16.52-49.57c.25-.75.48-1.43.7-2.09l.48-1.44,4.26-12.79h206.91ZM651.48,586.49l-23.78-35.68c-38.84-58.26-48.43-75.23-34.47-117.08,9.63-28.91,27.58-46.86,56.48-56.5,23.44-7.82,50.71-8.97,74.58-9.14l-72.8,218.39ZM134.16,543.91l-39.28,29.46,68.44-205.31h6.71c18.67,0,39.83,0,57.88,3.05,15.35,2.58,26.02,7.09,30.06,12.69,5.5,7.64,1.45,23.41-1.45,32.11-6.48,19.44-49.68,73.39-121.86,127.63-.17.12-.33.25-.5.37h0ZM256.67,302.55c-23.44,7.81-50.71,8.96-74.56,9.13l72.79-218.38,23.78,35.68c38.84,58.26,48.42,75.23,34.47,117.08-9.64,28.91-27.58,46.86-56.49,56.5ZM298.07,56.36h219.94l-5.78,17.33-10.25,30.74c-13.7,41.13-46.02,65.68-86.44,65.68-4.2,0-27.63-2.91-76.73-60.44-17.02-19.95-31.66-40.14-40.75-53.31ZM299.26,455.98c4.86-8.07,8.49-15.55,10.72-22.24,11.21-33.65,9.09-61.54-6.31-82.89-1.37-1.91-2.82-3.71-4.34-5.43,32.36-17.18,54.95-44.53,67.29-81.55,5.94-17.82,8.68-33.6,8.84-48.18,14.08,7.21,27.4,10.78,40.08,10.78,30.53,0,59.53-9.14,83.87-26.44,2.45-1.74,4.83-3.55,7.16-5.44,0,0,0,0,0,0,.02.02.03.04.04.06,15.23,21.13,41.72,31.84,78.75,31.84,6.44,0,13.74-.93,21.75-2.69,0,0,0,0,0,0-4.86,8.07-8.49,15.54-10.72,22.24-11.21,33.65-9.09,61.54,6.3,82.89,1.37,1.91,2.82,3.7,4.33,5.43-32.36,17.19-54.94,44.52-67.27,81.54-5.95,17.83-8.69,33.61-8.85,48.18-14.08-7.21-27.4-10.77-40.08-10.77-30.53,0-59.52,9.14-83.86,26.44-2.45,1.74-4.83,3.55-7.16,5.44,0,0,0,0,0,0-.02-.02-.03-.04-.05-.07-15.23-21.13-41.72-31.84-78.75-31.84-6.44,0-13.74.93-21.75,2.69,0,0,0,0,0,0ZM389.18,621l1.99-5.97,1.22-3.67.44-1.33,1.97-5.9,9.59-28.78c13.71-41.13,46.02-65.68,86.43-65.68,4.21,0,27.64,2.91,76.74,60.44,17.03,19.97,31.65,40.15,40.77,53.31h-219.96l.02-.05.79-2.37ZM122.05,623.42l45.92-34.44s.04-.03.05-.04c79.9-59.92,137.57-79.3,152.99-79.3,16.87,0,29.22,3.15,33.03,8.44,1.61,2.24,6.15,11.68-3.11,39.45l-16.52,49.57c-.49,1.46-.91,2.72-1.28,3.85l-.38,1.16-3.77,11.32H122.05ZM736.35,311.71h-.01c-18.67,0-39.82,0-57.87-3.03-15.35-2.58-26.02-7.09-30.06-12.69-5.5-7.65-1.45-23.41,1.45-32.12,6.48-19.46,49.8-73.54,122.19-127.86.06-.04.11-.08.17-.12h0s0,0,0,0l39.28-29.46-68.43,205.29h-6.72Z"/><polygon class="e" points="2591.84 56.43 2402.86 56.43 2213.89 623.36 2686.33 623.36 2717.82 528.87 2434.36 528.87 2591.84 56.43"/><path class="e" d="M4889.37,387.13h283.46l31.5-94.49h-283.47s47.25-141.73,47.25-141.73h377.95s31.5-94.49,31.5-94.49c0,0-301.18,0-377.95,0-141.73,0-204.73,47.24-251.97,188.97l-125.98,377.95h566.93l31.5-94.49h-377.95s47.24-141.73,47.24-141.73Z"/><path class="e" d="M3307.75,56.43c-141.73,0-47.25,0-188.98,0s-204.72,47.24-251.97,188.98l-125.98,377.95h188.98s63-188.98,63-188.98h188.97l-62.99,188.98h188.98l125.98-377.95c31.5-94.49,15.75-188.97-125.98-188.97ZM3213.26,339.89h-188.98s62.99-188.98,62.99-188.98h188.98l-62.99,188.98Z"/><path class="e" d="M4687.59,245.4c31.5-94.49,15.75-188.97-125.98-188.97h-377.95s-188.98,566.92-188.98,566.92h188.98s47.25,0,188.98,0,204.72-47.24,251.97-188.97l62.99-188.98ZM4404.12,528.87h-188.97l125.98-377.95h188.98l-125.99,377.95Z"/><path class="e" d="M2279.87,245.4c31.5-94.49,15.75-188.97-125.98-188.98-142.27,0-47.24.01-188.97,0-141.74,0-204.73,47.24-251.97,188.97l-62.99,188.98c-31.5,94.49-15.76,188.97,125.98,188.97h188.98c141.73,0,204.72-47.24,251.97-188.97l62.99-188.98ZM1996.4,528.87h-188.97l125.98-377.95h188.98l-125.99,377.95Z"/><path class="e" d="M5815.51,56.42l-94.49,283.46h-188.98l94.49-283.45h-189.22l-62.75,188.97c-62.99,188.98,126.28,188.97,126.28,188.97h188.44s-31.54,94.49-31.54,94.49h-377.67s-31.5,94.49-31.5,94.49h189.26s46.96,0,188.69,0,204.72-47.24,251.97-188.98l125.98-377.96h-188.98Z"/><path class="e" d="M4060.66,245.4c31.5-94.49,15.75-188.97-125.98-188.97h-377.95s-188.98,566.92-188.98,566.92h188.98l62.99-188.98,102.36,188.98h212.6s-125.98-188.98-125.98-188.98c188.98,0,220.47-94.49,251.97-188.98ZM3840.19,339.9h-188.98s62.99-188.98,62.99-188.98h188.98l-62.99,188.98Z"/><path class="e" d="M1276.04,245.41c31.5-94.49,30.96-94.49,30.96-94.49h188.98l-30.96,94.49h188.97c31.5-94.49,15.75-188.97-125.98-188.97h-188.98c-141.73,0-204.72,47.24-251.97,188.97-64.05,188.98,346.46,94.49,313.9,188.98-32.56,94.49-30.96,94.49-30.96,94.49h-188.98l30.97-94.49h-188.98c-31.49,94.49-15.75,188.97,125.99,188.97h188.97c141.73,0,205.79-47.24,251.97-188.97,64.05-188.98-345.4-94.49-313.9-188.98Z"/></svg>
