<?xml version="1.0" encoding="UTF-8"?><svg id="a" xmlns="http://www.w3.org/2000/svg" width="1762.16mm" height="200.01mm" viewBox="0 0 4995.11 566.94"><defs><style>.e{fill:currentColor;}</style></defs><polygon class="e" points="1582.46 0 1393.48 0 1204.51 566.93 1676.95 566.93 1708.44 472.45 1424.98 472.45 1582.46 0"/><path class="e" d="M3879.99,330.71h283.46l31.5-94.49h-283.47s47.25-141.73,47.25-141.73h377.95S4368.18,0,4368.18,0c0,0-301.18,0-377.95,0-141.73,0-204.73,47.24-251.97,188.97l-125.98,377.95h566.93l31.5-94.49h-377.95s47.24-141.73,47.24-141.73Z"/><path class="e" d="M2298.37,0c-141.73,0-47.25,0-188.98,0s-204.72,47.24-251.97,188.98l-125.98,377.95h188.98s63-188.98,63-188.98h188.97l-62.99,188.98h188.98l125.98-377.95C2455.85,94.49,2440.1,0,2298.37,0ZM2203.88,283.47h-188.98s62.99-188.98,62.99-188.98h188.98l-62.99,188.98Z"/><path class="e" d="M3678.21,188.98C3709.71,94.49,3693.96,0,3552.23,0h-377.95s-188.98,566.92-188.98,566.92h188.98s47.25,0,188.98,0,204.72-47.24,251.97-188.97l62.99-188.98ZM3394.74,472.44h-188.97l125.98-377.95h188.98l-125.99,377.95Z"/><path class="e" d="M1270.49,188.98C1301.99,94.49,1286.24,0,1144.51,0c-142.27,0-47.24.01-188.97,0-141.74,0-204.73,47.24-251.97,188.97l-62.99,188.98c-31.5,94.49-15.76,188.97,125.98,188.97h188.98c141.73,0,204.72-47.24,251.97-188.97l62.99-188.98ZM987.02,472.45h-188.97l125.98-377.95h188.98l-125.99,377.95Z"/><path class="e" d="M4806.13,0l-94.49,283.46h-188.98L4617.16.01h-189.22l-62.75,188.97c-62.99,188.98,126.28,188.97,126.28,188.97h188.44s-31.54,94.49-31.54,94.49h-377.67s-31.5,94.49-31.5,94.49h189.26s46.96,0,188.69,0,204.72-47.24,251.97-188.98L4995.11,0h-188.98Z"/><path class="e" d="M3051.28,188.98C3082.78,94.49,3067.03.01,2925.3.01h-377.95s-188.98,566.92-188.98,566.92h188.98l62.99-188.98,102.36,188.98h212.6s-125.98-188.98-125.98-188.98c188.98,0,220.47-94.49,251.97-188.98ZM2830.81,283.48h-188.98s62.99-188.98,62.99-188.98h188.98l-62.99,188.98Z"/><path class="e" d="M266.66,188.98c31.5-94.49,30.96-94.49,30.96-94.49h188.98l-30.96,94.49h188.97C676.11,94.49,660.36.01,518.63.01h-188.98C187.92.01,124.92,47.25,77.68,188.98c-64.05,188.98,346.46,94.49,313.9,188.98-32.56,94.49-30.96,94.49-30.96,94.49h-188.98l30.97-94.49H13.63c-31.49,94.49-15.75,188.97,125.99,188.97h188.97c141.73,0,205.79-47.24,251.97-188.97,64.05-188.98-345.4-94.49-313.9-188.98Z"/></svg>
