<?xml version="1.0" encoding="UTF-8"?><svg id="a" xmlns="http://www.w3.org/2000/svg" width="266.67mm" height="200mm" viewBox="0 0 755.91 566.93"><defs><style>.e{fill:currentColor;}</style></defs><path class="e" d="M716.75,0l-37.94,28.48-62.99,47.24c-.07.05-.14.1-.21.16-66.55,49.87-114.58,66.01-127.42,66.01-14.07,0-24.37-2.63-27.54-7.04-1.34-1.86-5.13-9.74,2.59-32.9l13.78-41.34c.21-.62.4-1.2.58-1.74l.4-1.2L497.22,0h-49.54l-13.28,39.85h0s0,0,0,0l-7.2,21.6-8.55,25.64c-11.43,34.3-38.38,54.78-72.09,54.78-3.5,0-23.04-2.43-63.99-50.41-15.22-17.84-28.16-35.92-35.56-46.75l-.09-.12-6.54-9.81-.07-.11-.28-.42L217.21,0h-28.23l-9.42,28.25,21.08,31.63.28.43.18.28h0c1.02,1.59,3.65,5.63,7.56,11.33l23.76,35.64c32.39,48.59,40.38,62.74,28.75,97.64-8.04,24.11-23,39.08-47.11,47.12-22.94,7.64-50.29,7.64-72.26,7.64h-39.47l-15.67,47h55.14c15.57,0,33.22,0,48.27,2.54,12.8,2.15,21.7,5.91,25.07,10.58,4.59,6.37,1.21,19.52-1.21,26.78-5.41,16.21-41.43,61.2-101.63,106.44-.14.1-.28.2-.42.31h0s-63,47.25-63,47.25l-35.83,26.88L0,566.93h39.14l37.95-28.48,62.99-47.24s.03-.02.04-.03c66.64-49.97,114.73-66.14,127.59-66.14,14.07,0,24.37,2.63,27.54,7.04,1.34,1.86,5.13,9.74-2.59,32.9l-13.78,41.34c-.41,1.22-.76,2.27-1.07,3.21l-.32.96-18.82,56.44h49.55l13.28-39.86h0s.04-.12.28-.85l2.12-6.33.66-1.98,1.66-4.98,1.02-3.06.37-1.11,1.64-4.92,8-24c11.43-34.3,38.38-54.78,72.08-54.78,3.51,0,23.05,2.43,64,50.41,14.9,17.47,27.6,35.16,35.1,46.05l.44.65,6.63,9.95.09.13h0s.28.43.28.43l22.81,34.25h28.24l9.42-28.25-21.08-31.63-.28-.43c-.86-1.35-3.57-5.54-7.74-11.62l-.21-.3-23.55-35.33c-32.39-48.59-40.39-62.74-28.75-97.64,8.03-24.11,23-39.08,47.1-47.12,22.94-7.65,50.29-7.65,72.27-7.65h39.48l15.67-47h-55.16c-15.57,0-33.21,0-48.26-2.53-12.8-2.15-21.7-5.91-25.07-10.58-4.59-6.38-1.21-19.52,1.21-26.79,5.41-16.23,41.54-61.33,101.9-106.64.05-.03.09-.07.14-.1h0s0,0,0,0l63-47.25,35.83-26.89L755.91,0h-39.16Z"/><path class="e" d="M690.7,47l-157.64,472.93H65.21L222.85,47h467.84M755.91,0h0,0ZM755.91,0H188.98L0,566.93h566.93L755.91,0h0Z"/></svg>
